<?xml version="1.0" encoding="UTF-8" standalone="no"?>
<!-- Created with Inkscape (http://www.inkscape.org/) -->

<svg
   xmlns:osb="http://www.openswatchbook.org/uri/2009/osb"
   xmlns:dc="http://purl.org/dc/elements/1.1/"
   xmlns:cc="http://creativecommons.org/ns#"
   xmlns:rdf="http://www.w3.org/1999/02/22-rdf-syntax-ns#"
   xmlns:svg="http://www.w3.org/2000/svg"
   xmlns="http://www.w3.org/2000/svg"
   xmlns:sodipodi="http://sodipodi.sourceforge.net/DTD/sodipodi-0.dtd"
   xmlns:inkscape="http://www.inkscape.org/namespaces/inkscape"
   width="175.92056mm"
   height="175.92055mm"
   viewBox="0 0 175.92056 175.92055"
   version="1.1"
   id="svg8"
   inkscape:version="0.92.2 (unknown)"
   sodipodi:docname="logo.svg">
  <defs
     id="defs2">
    <linearGradient
       id="linearGradient4547"
       osb:paint="solid">
      <stop
         style="stop-color:#000000;stop-opacity:1;"
         offset="0"
         id="stop4545" />
    </linearGradient>
  </defs>
  <sodipodi:namedview
     id="base"
     pagecolor="#ffffff"
     bordercolor="#666666"
     borderopacity="1.0"
     inkscape:pageopacity="0.0"
     inkscape:pageshadow="2"
     inkscape:zoom="0.25"
     inkscape:cx="544.12401"
     inkscape:cy="584.17725"
     inkscape:document-units="mm"
     inkscape:current-layer="layer1"
     showgrid="false"
     inkscape:window-width="1314"
     inkscape:window-height="940"
     inkscape:window-x="600"
     inkscape:window-y="0"
     inkscape:window-maximized="0" />
  <metadata
     id="metadata5">
    <rdf:RDF>
      <cc:Work
         rdf:about="">
        <dc:format>image/svg+xml</dc:format>
        <dc:type
           rdf:resource="http://purl.org/dc/dcmitype/StillImage" />
        <dc:title></dc:title>
      </cc:Work>
    </rdf:RDF>
  </metadata>
  <g
     inkscape:label="Layer 1"
     inkscape:groupmode="layer"
     id="layer1"
     transform="translate(-22.028297,-20.838842)">
    <path
       style="fill:#eeff00;fill-opacity:1;stroke:#000000;stroke-width:1.03671932;stroke-miterlimit:4;stroke-dasharray:none;stroke-opacity:1"
       d="m 146.3375,104.52967 21.23477,-23.058317 c 1.4705,-1.59678 3.93984,-1.69845 5.53663,-0.22794 l 23.05832,21.234767 c 1.59679,1.47051 1.69846,3.93984 0.22795,5.53663 l -21.23477,23.05827 c -1.47051,1.59679 -3.93985,1.69845 -5.53664,0.22794 l -23.05832,-21.23471 c -1.59679,-1.47051 -1.69845,-3.93985 -0.22794,-5.53664 z"
       id="path4606"
       inkscape:connector-curvature="0" />
    <path
       style="fill:#ff2c00;fill-opacity:1;stroke:#000000;stroke-width:1.03671932;stroke-miterlimit:4;stroke-dasharray:none;stroke-opacity:1"
       d="m 114.38516,75.104263 21.23476,-23.05832 c 1.47051,-1.59679 3.93985,-1.69845 5.53664,-0.22794 l 23.05832,21.23477 c 1.59679,1.47051 1.69845,3.93984 0.22794,5.53663 l -21.23477,23.058317 c -1.4705,1.59679 -3.93984,1.69845 -5.53663,0.22794 L 114.6131,80.640893 c -1.59679,-1.4705 -1.69845,-3.93984 -0.22794,-5.53663 z"
       id="path4604"
       inkscape:connector-curvature="0" />
    <path
       style="fill:#ff2c00;fill-opacity:1;stroke:#000000;stroke-width:1.03671932;stroke-miterlimit:4;stroke-dasharray:none;stroke-opacity:1"
       d="m 82.432808,45.678843 21.234772,-23.05837 c 1.4705,-1.59679 3.93984,-1.69845 5.53663,-0.22795 l 23.05832,21.23483 c 1.59679,1.4705 1.69845,3.93984 0.22794,5.53663 l -21.23476,23.05832 c -1.47051,1.59679 -3.93985,1.69846 -5.53664,0.22795 L 82.660754,51.215473 c -1.596791,-1.4705 -1.698454,-3.93984 -0.227946,-5.53663 z"
       id="path4602"
       inkscape:connector-curvature="0" />
    <path
       style="fill:#2d00ff;fill-opacity:1;stroke:#000000;stroke-width:1.03671932;stroke-miterlimit:4;stroke-dasharray:none;stroke-opacity:1"
       d="m 116.91209,136.48196 21.23476,-23.05828 c 1.47051,-1.59678 3.93985,-1.69845 5.53664,-0.22795 l 23.05832,21.23474 c 1.59679,1.4705 1.69845,3.93985 0.22794,5.53663 l -21.23476,23.05832 c -1.47051,1.59679 -3.93985,1.69845 -5.53664,0.22794 L 117.14003,142.0186 c -1.59679,-1.47051 -1.69845,-3.93985 -0.22794,-5.53664 z"
       id="path4600"
       inkscape:connector-curvature="0" />
    <path
       style="fill:#ffffff;fill-opacity:1;stroke:#000000;stroke-width:1.03671932;stroke-miterlimit:4;stroke-dasharray:none;stroke-opacity:1"
       d="M 84.959742,107.0566 106.19451,83.998283 c 1.47051,-1.59679 3.93985,-1.69845 5.53663,-0.22794 l 23.05832,21.234767 c 1.59679,1.4705 1.69845,3.93984 0.22795,5.53663 l -21.23477,23.05827 c -1.47051,1.59679 -3.93985,1.69845 -5.53664,0.22794 L 85.187685,112.59322 c -1.596787,-1.4705 -1.69845,-3.93983 -0.227943,-5.53662 z"
       id="path4598"
       inkscape:connector-curvature="0" />
    <path
       style="fill:#00ff00;stroke:#000000;stroke-width:1.03671932;stroke-miterlimit:4;stroke-dasharray:none;stroke-opacity:1"
       d="m 53.007395,77.631193 21.234766,-23.05832 c 1.470508,-1.59679 3.939848,-1.69845 5.536638,-0.22795 l 23.058321,21.23477 c 1.59679,1.47051 1.69845,3.93985 0.22794,5.53664 L 81.830295,104.17465 c -1.470508,1.59678 -3.939847,1.69845 -5.536636,0.22794 L 53.235338,83.167823 c -1.596788,-1.47051 -1.698452,-3.93984 -0.227943,-5.53663 z"
       id="path4596"
       inkscape:connector-curvature="0" />
    <path
       style="fill:#00ff00;fill-opacity:1;stroke:#000000;stroke-width:1.03671932;stroke-miterlimit:4;stroke-dasharray:none;stroke-opacity:1"
       d="m 87.486673,168.4343 21.234767,-23.05831 c 1.47051,-1.5968 3.93984,-1.69846 5.53663,-0.22795 l 23.05833,21.23477 c 1.59679,1.47051 1.69845,3.93985 0.22794,5.53664 l -21.23476,23.05832 c -1.47051,1.59678 -3.93985,1.69845 -5.53664,0.22794 L 87.714617,173.97094 c -1.596788,-1.47051 -1.698451,-3.93984 -0.227944,-5.53664 z"
       id="path4594"
       inkscape:connector-curvature="0" />
    <path
       style="fill:#ff9100;fill-opacity:1;stroke:#000000;stroke-width:1.03671932;stroke-miterlimit:4;stroke-dasharray:none;stroke-opacity:1"
       d="m 55.534329,139.00889 21.234765,-23.0583 c 1.470508,-1.59678 3.939848,-1.69844 5.536637,-0.22794 l 23.058319,21.23475 c 1.59679,1.4705 1.69845,3.93984 0.22794,5.53663 l -21.23476,23.05832 c -1.470508,1.59679 -3.939848,1.69845 -5.536637,0.22794 L 55.762272,144.54553 c -1.596787,-1.47051 -1.69845,-3.93985 -0.227943,-5.53664 z"
       id="path4592"
       inkscape:connector-curvature="0" />
    <path
       style="fill:#2d00ff;fill-opacity:1;stroke:#000000;stroke-width:1.03671932;stroke-miterlimit:4;stroke-dasharray:none;stroke-opacity:1"
       d="M 23.581977,109.58353 44.816748,86.525213 c 1.470507,-1.59679 3.939847,-1.69845 5.536635,-0.22794 l 23.05832,21.234757 c 1.59679,1.47051 1.698452,3.93984 0.227945,5.53662 l -21.234767,23.05829 c -1.470507,1.59678 -3.939846,1.69845 -5.536634,0.22794 l -23.05832,-21.23474 c -1.59679,-1.47051 -1.69845,-3.93983 -0.22795,-5.53661 z"
       id="use4567"
       inkscape:connector-curvature="0" />
  </g>
</svg>
